<svg width="14" height="16" viewBox="0 0 14 16" fill="none" xmlns="http://www.w3.org/2000/svg">
<path d="M4.625 9H3.375C3.125 9 3 8.875 3 8.625V7.375C3 7.125 3.125 7 3.375 7H4.625C4.875 7 5 7.125 5 7.375V8.625C5 8.875 4.875 9 4.625 9ZM8 8.625C8 8.875 7.875 9 7.625 9H6.375C6.125 9 6 8.875 6 8.625V7.375C6 7.125 6.125 7 6.375 7H7.625C7.875 7 8 7.125 8 7.375V8.625ZM11 8.625C11 8.875 10.875 9 10.625 9H9.375C9.125 9 9 8.875 9 8.625V7.375C9 7.125 9.125 7 9.375 7H10.625C10.875 7 11 7.125 11 7.375V8.625ZM8 11.625C8 11.875 7.875 12 7.625 12H6.375C6.125 12 6 11.875 6 11.625V10.375C6 10.125 6.125 10 6.375 10H7.625C7.875 10 8 10.125 8 10.375V11.625ZM5 11.625C5 11.875 4.875 12 4.625 12H3.375C3.125 12 3 11.875 3 11.625V10.375C3 10.125 3.125 10 3.375 10H4.625C4.875 10 5 10.125 5 10.375V11.625ZM11 11.625C11 11.875 10.875 12 10.625 12H9.375C9.125 12 9 11.875 9 11.625V10.375C9 10.125 9.125 10 9.375 10H10.625C10.875 10 11 10.125 11 10.375V11.625ZM14 3.5V14.5C14 14.917 13.854 15.271 13.562 15.562C13.271 15.854 12.917 16 12.5 16H1.5C1.083 16 0.728988 15.854 0.437988 15.562C0.145988 15.271 0 14.917 0 14.5V3.5C0 3.083 0.145988 2.72899 0.437988 2.43799C0.728988 2.14599 1.083 2 1.5 2H3V0.375C3 0.125 3.125 0 3.375 0H4.625C4.875 0 5 0.125 5 0.375V2H9V0.375C9 0.125 9.125 0 9.375 0H10.625C10.875 0 11 0.125 11 0.375V2H12.5C12.917 2 13.271 2.14599 13.562 2.43799C13.854 2.72899 14 3.083 14 3.5ZM12.5 14.312V5H1.5V14.312C1.5 14.438 1.56199 14.5 1.68799 14.5H12.312C12.438 14.5 12.5 14.438 12.5 14.312Z" fill="#222222"/>
</svg>
