<svg width="11" height="8" viewBox="0 0 11 8" fill="none" xmlns="http://www.w3.org/2000/svg">
<path d="M4.5 7L0.25 2.75C0.104 2.604 0.0310059 2.42699 0.0310059 2.21899C0.0310059 2.00999 0.104 1.83299 0.25 1.68799L0.968994 1C1.11499 0.854 1.292 0.781006 1.5 0.781006C1.708 0.781006 1.88501 0.854 2.03101 1L5.03101 4L8.03101 1C8.17701 0.854 8.35401 0.781006 8.56201 0.781006C8.77101 0.781006 8.94799 0.854 9.09399 1L9.81201 1.68799C9.95801 1.83299 10.031 2.00999 10.031 2.21899C10.031 2.42699 9.95801 2.604 9.81201 2.75L5.56201 7C5.41701 7.146 5.24001 7.21899 5.03101 7.21899C4.82301 7.21899 4.646 7.146 4.5 7Z" fill="#FFC000"/>
</svg>
